<svg xmlns="http://www.w3.org/2000/svg" viewBox="0 0 27 37">
	<path fill-rule="evenodd" stroke="#008EED" stroke-width="2" fill="#FFF"
		d="M2.999 2H23a1 1 0 011 1v29.999a1 1 0 01-1 1H2.999a1 1 0 01-1-1V3a1 1 0 011-1z" />
	<path fill-rule="evenodd" stroke="#008EED" fill="#008EED"
		d="M6.499 5.499H19.5c1.02 0 1 .448 1 1V10.5c0 1.02.02 1-1 1H6.499c-.552 0-1 .02-1-1V6.499a1 1 0 011-1z" />
	<path fill-rule="evenodd" fill="#008EED"
		d="M6.499 14.999H7.5c1.02 0 1 .448 1 1V17c0 .552.02 1-1 1H6.499a1 1 0 01-1-1v-1.001a1 1 0 011-1zM12.499 14.999H13.5c1.02 0 1 .448 1 1V17c0 .552.02 1-1 1h-1.001a1 1 0 01-1-1v-1.001a1 1 0 011-1zM6.499 20.999H7.5c1.02 0 1 .448 1 1V23c0 .552.02 1-1 1H6.499a1 1 0 01-1-1v-1.001a1 1 0 011-1zM12.499 20.999H13.5c1.02 0 1 .448 1 1V23c0 .552.02 1-1 1h-1.001a1 1 0 01-1-1v-1.001a1 1 0 011-1zM6.499 26.999H7.5c1.02 0 1 .448 1 1V29c0 .552.02 1-1 1H6.499a1 1 0 01-1-1v-1.001a1 1 0 011-1zM12.499 26.999H13.5c1.02 0 1 .448 1 1V29c0 .552.02 1-1 1h-1.001a1 1 0 01-1-1v-1.001a1 1 0 011-1zM18.499 14.999H19.5c1.02 0 1 .448 1 1V17c0 .552.02 1-1 1h-1.001a1 1 0 01-1-1v-1.001a1 1 0 011-1zM18.499 20.999H19.5c1.02 0 1 .448 1 1V29c0 .552.02 1-1 1h-1.001a1 1 0 01-1-1v-7.001a1 1 0 011-1z" />
</svg>