<svg xmlns="http://www.w3.org/2000/svg" viewBox="0 0 130 130">
	<path fill-rule="evenodd" fill="#008EED"
		d="M80.557 123.834v.013s-.094-.001-.262-.006c-.169.005.035.006.035.006v-.013c-2.003-.05-7.678-.272-14.493-1.12.019-.242.038-.483.038-.729V90.719c0-5.172-4.235-9.38-9.439-9.38H36.51c.776-3.64 2.711-6.721 5.768-9.379 8.39-7.296 23.072-10.422 23.072-10.422s2.075 5.377 14.945 5.762c12.87-.385 14.944-5.762 14.944-5.762s14.683 3.126 23.072 10.422c8.39 7.295 8.39 17.717 8.39 34.392 0 15.633-41.016 17.331-46.144 17.482zM80.33 62.58c-13.909 0-24.943-13.298-24.943-29.702 0-16.404 11.034-29.702 24.943-29.702 13.314 0 24.348 13.298 24.348 29.702 0 16.404-11.034 29.702-24.348 29.702zM60.631 90.719V96.972H3.999V90.719c0-2.302 1.879-4.169 4.195-4.169h48.242c2.317 0 4.195 1.867 4.195 4.169zm0 10.422v22.129c0 2.059-1.878 3.926-4.195 3.926H8.194c-2.316 0-4.195-1.867-4.195-3.926v-22.28h56.632v.151zM8.194 112.605h12.585v-2.084H8.194v2.084zm23.073-7.295H8.194v2.084h23.073v-2.084zm20.974 5.211H41.754v9.379h10.487v-9.379z" />
</svg>