<svg xmlns="http://www.w3.org/2000/svg" viewBox="0 0 33 23">
	<path fill-rule="evenodd" stroke="#008EED" fill="#008EED" d="M6.999 14.999H25V17H6.999v-2.001z" />
	<path stroke="#008EED" stroke-width="2" fill="none"
		d="M3.999 1.999H28a2 2 0 012 2V18a2 2 0 01-2 2H3.999a2 2 0 01-2-2V3.999a2 2 0 012-2z" />
	<path fill-rule="evenodd" stroke="#008EED" fill="#008EED"
		d="M4.999 5.999H7V8H4.999V5.999zM9.999 5.999H12V8H9.999V5.999zM14.999 5.999H17V8h-2.001V5.999zM19.999 5.999H22V8h-2.001V5.999zM24.999 5.999H27V8h-2.001V5.999zM4.999 9.999H7V12H4.999V9.999zM9.999 9.999H12V12H9.999V9.999zM14.999 9.999H17V12h-2.001V9.999zM19.999 9.999H22V12h-2.001V9.999zM24.999 9.999H27V12h-2.001V9.999z" />
</svg>