<svg xmlns="http://www.w3.org/2000/svg" viewBox="0 0 21 21">
	<path stroke="#008EED" stroke-width="2" fill="none" d="M10.5 2.999a7.5 7.5 0 110 15 7.5 7.5 0 010-15z" />
	<path fill-rule="evenodd" fill="#008EED"
		d="M11.231 13.441c-.025-.239-.038-.341-.038-.64 0-.666.188-.967.979-1.494 1.029-.703 1.255-.891 1.544-1.037.454-.658.439-1.122.439-1.725 0-.905-1.393-2.195-3.414-2.195-1.18 0-2.134-.014-2.774.564-.54.489-.791.966-.992 1.882l1.858.424c.05-.675.126-.888.301-.41.302-1.181.841-1.445 1.494-1.445 1.08 0 1.745.477 1.745 1.243 0 .565.347.967-1.105 1.506-.816.528-.916.615-.388 1.446-1.143-.065-1.306.54-1.306 1.115l.012.239c0 .856-.012.313-.037.527h1.682zm-1.758 1.042v1.719h1.82v-1.719h-1.82z" />
</svg>