<svg xmlns="http://www.w3.org/2000/svg" viewBox="0 0 61 51">
	<path fill-rule="evenodd" fill="#008EED" d="M52.268 46.684L46.103 41.6l4.33-3.094 1.835 8.178z" />
	<path fill-rule="evenodd" fill="#008EED"
		d="M31.45 21.451h20a5 5 0 015 5v10a5 5 0 01-5 5h-20a5 5 0 01-5-5v-10a5 5 0 015-5zM9.213 32.998l1.536-10.66 6.928 4-8.464 6.66z" />
	<path fill-rule="evenodd" fill="#008EED"
		d="M8.999 4.999h25a5 5 0 015 5v12a5 5 0 01-5 5h-25a5 5 0 01-5-5v-12a5 5 0 015-5z" />
	<path fill-rule="evenodd" fill="#FFF"
		d="M21.751 13.791a2.09 2.09 0 00-2.089 2.088c0 1.431.936 2.088 2.089 2.088 1.152 0 2.088-.657 2.088-2.088a2.09 2.09 0 00-2.088-2.088zm8.016 0a2.09 2.09 0 00-2.088 2.088c0 1.431.936 2.088 2.088 2.088 1.152 0 2.088-.657 2.088-2.088a2.09 2.09 0 00-2.088-2.088zm-16.009 0a2.09 2.09 0 00-2.088 2.088c0 1.431.936 2.088 2.088 2.088 1.152 0 2.088-.657 2.088-2.088a2.09 2.09 0 00-2.088-2.088z" />
</svg>