<svg xmlns="http://www.w3.org/2000/svg" viewBox="0 0 180 130">
	<path fill-rule="evenodd" fill="#F67D8C"
		d="M67.112 106.162v.011s.218-.001-.22-.005l-.219.005v-.011a133.417 133.417 0 01-11.891-.938c.016-.014.031-.405.031-.611V78.42c0-3.55-3.547-7.858-7.906-7.858H29.832c1.035-3.049 2.655-5.63 5.648-7.857 7.28-6.112 18.894-8.731 18.894-8.731s1.738 4.505 12.518 4.578c10.78-.073 12.518-4.578 12.518-4.578s12.298 2.619 19.326 8.731c7.028 6.111 7.028 14.842 7.028 28.812 0 13.096-34.357 14.843-38.652 14.645zm-.439-51.315c-11.402 0-20.383-11.141-20.383-24.883 0-13.743 8.981-24.154 20.383-24.154 12.067 0 20.643 10.411 20.643 24.154 0 13.742-8.576 24.883-20.643 24.883zM50.421 78.42v4.365H2.984V78.42c0-1.929 1.574-3.492 3.514-3.492h40.409c1.941 0 3.514 1.563 3.514 3.492zm0 26.193c0 1.928-1.573 3.492-3.514 3.492H6.498c-1.94 0-3.514-1.564-3.514-3.492V86.278h47.437v18.335zM6.498 96.755H17.4v-2.619H6.498v2.619zm19.326-6.985H6.498v2.62h19.326v-2.62zm17.569 4.366h-8.784v8.731h8.784v-8.731z" />
	<path fill-rule="evenodd" fill="#F94258"
		d="M131.705 127.86v.013l-.263-.006-.264.006v-.013c-4.968-.152-46.399-1.76-46.399-17.488 0-16.68 0-27.105 8.436-34.402 8.436-7.298 23.199-10.425 23.199-10.425s2.086 5.379 15.028 5.575c12.941-.196 15.026-5.575 15.026-5.575s14.764 3.127 23.2 10.425c8.436 7.297 8.436 17.722 8.436 34.402 0 15.728-41.242 17.336-46.399 17.488zm-.263-63.358c-13.687 0-24.782-13.302-24.782-29.711S117.755 5.8 131.442 5.8c13.686 0 24.781 12.582 24.781 28.991s-11.095 29.711-24.781 29.711z" />
</svg>